<svg xmlns="http://www.w3.org/2000/svg" width="152" height="125" viewBox="0 0 152 125"><g fill="none" fill-rule="evenodd"><path stroke="#21243F" stroke-width="3.52" d="M76 22.5a2.49 2.49 0 0 0-2.5-2.5 2.49 2.49 0 0 0-2.5 2.5V25v-2.5a2.49 2.49 0 0 0-2.5-2.5 2.49 2.49 0 0 0-2.5 2.5m-16-18A2.49 2.49 0 0 0 47.5 2 2.49 2.49 0 0 0 45 4.5V7 4.5A2.49 2.49 0 0 0 42.5 2 2.49 2.49 0 0 0 40 4.5"/><path stroke="#21243F" stroke-linecap="square" stroke-width="3.52" d="M97.518 96.483L104.2 48h30.6l10.2 74H94l2.111-15.31"/><path stroke="#21243F" stroke-linecap="square" stroke-width="3.52" d="M129.222 28H142l-7.667 21h-30.666L96 28h23m10.75 0h5.125L140 18H99l5.125 10H119.5"/><path stroke="#865BF4" stroke-linecap="square" stroke-width="3.52" d="M112 18v-8h15v8"/><path stroke="#21243F" stroke-linecap="square" stroke-width="3.52" d="M120 10V2"/><path fill="#FFF" d="M75.783 78.338l72.532-33.542c1.874-.866 2.183-3.407.57-4.699a34.227 34.227 0 0 0-31.811-5.912l-2.135.68-81.155 37.53-10.675-5.086a17.315 17.315 0 0 0-14.715-.083l-1.898.877L29.812 85.81a23.556 23.556 0 0 0 24.139 2.624l11.708-5.414"/><path stroke="#21243F" stroke-linecap="square" stroke-width="3.52" d="M75.783 78.338l72.532-33.542c1.874-.866 2.183-3.407.57-4.699a34.227 34.227 0 0 0-31.811-5.912l-2.135.68-81.155 37.53-10.675-5.086a17.315 17.315 0 0 0-14.715-.083l-1.898.877L29.812 85.81a23.556 23.556 0 0 0 24.139 2.624l11.708-5.414"/><path fill="#FFF" d="M93.41 56.21l14.064-6.512-55.303-25.436a22.299 22.299 0 0 0-18.69.024l41.306 40.546 8.338-3.86"/><path stroke="#21243F" stroke-linecap="square" stroke-width="3.52" d="M93.41 56.21l14.064-6.512-55.303-25.436a22.299 22.299 0 0 0-18.69.024l41.306 40.546 8.338-3.86M45 79l5-2"/><path stroke="#865BF4" stroke-linecap="square" stroke-width="3.52" d="M61 71l5-2m51-23l5-2"/><path stroke="#21243F" stroke-linecap="square" stroke-width="3.52" d="M131 39l7-3"/><path stroke="#FF74AD" stroke-linecap="square" stroke-width="3.52" d="M40 62l30-14"/><path stroke="#21243F" stroke-linecap="square" stroke-width="3.52" d="M33 90L3 104m21-21L8 91m119-28L74 88m30 7h31m11 28H20"/></g></svg>