<svg width="115" height="122" viewBox="0 0 115 122" xmlns="http://www.w3.org/2000/svg"><title>Group 4</title><g stroke-width="3.42" fill="none" fill-rule="evenodd"><path d="M75.233 43.822h-10.86c-2.494 0-4.162-2.556-3.149-4.825l7.463-18.266a13.476 13.476 0 0 0 1.17-5.49c0-6.204-4.24-11.611-10.284-13.116L59.07 2 35.732 50.027A13.124 13.124 0 0 1 24 57.247h.017v48.329c5.287 0 10.466 1.48 14.948 4.271l7.838 4.882A28.28 28.28 0 0 0 61.75 119h41.811c5.213 0 9.438-4.207 9.438-9.397s-2.894-9.398-8.106-9.398c5.212 0 8.106-4.206 8.106-9.397 0-5.19-2.894-9.397-8.106-9.397 5.212 0 8.106-4.207 8.106-9.397s-2.894-9.398-8.106-9.398c5.212 0 8.106-4.207 8.106-9.397s-4.225-9.397-9.438-9.397H88.715" stroke="#21243F" stroke-linecap="square"/><path stroke="#FF74AD" stroke-linecap="square" d="M2 50h22v70H2V64.875"/><path d="M103 24.429c0-1.343-1.161-2.429-2.598-2.429h-.213c-1.405 0-2.566 1.057-2.598 2.372L97.501 27v-2.571c0-1.343-1.162-2.429-2.598-2.429h-.305C93.16 22 92 23.086 92 24.429" stroke="#865BF4"/><path d="M28 6.429C28 5.086 26.839 4 25.402 4h-.213c-1.405 0-2.566 1.057-2.598 2.372L22.501 9V6.429C22.5 5.086 21.338 4 19.902 4h-.305C18.16 4 17 5.086 17 6.429" stroke="#21243F"/></g></svg>