<svg xmlns="http://www.w3.org/2000/svg" width="152" height="116" viewBox="0 0 152 116"><g fill="none" fill-rule="evenodd" stroke-width="3.42"><path stroke="#FF74AD" d="M43.554 77.93h28.318c4.82 0 9.177 2.869 11.075 7.294l5.24 12.21"/><path stroke="#21243F" stroke-linecap="square" d="M26.287 22.793a6.918 6.918 0 0 1 6.867 6.055l1.059 10.663c.516 4.125-2.704 7.77-6.867 7.77a6.917 6.917 0 0 1-6.866-6.055l-1.06-10.663c-.516-4.126 2.704-7.77 6.867-7.77zm20.056 74.64h46.97c3.601 0 6.8 2.303 7.939 5.717 1.806 5.412-2.228 11.002-7.94 11.002H40.7c-4.768 0-6.962-5.925-3.342-9.024l8.986-7.694-7.077-37.704a8.437 8.437 0 0 0-8.296-6.877c-5.137 0-9.082 4.544-8.356 9.623l5.379 37.61c.705 4.927 6.548 7.172 10.376 3.986l7.974-6.638zM96.555 73.75a4.182 4.182 0 0 0 4.184 4.18h16.737a4.182 4.182 0 0 0 4.184-4.18 4.182 4.182 0 0 0-4.184-4.18H100.74a4.182 4.182 0 0 0-4.184 4.18zM65.87 36.135l12.553-12.538"/><path stroke="#865BF4" stroke-linecap="square" d="M65.87 47.28l25.106-25.076"/><path stroke="#21243F" stroke-linecap="square" d="M79.818 44.494l8.368-8.359"/><path stroke="#21243F" d="M51.922 2.7l5.579 8.359h13.948L77.028 2.7"/><path stroke="#21243F" stroke-linecap="square" d="M110.502 2.7l33.475 75.23"/><path stroke="#865BF4" stroke-linecap="square" d="M116.081 91.861h2.725c7.738 0 14.013-6.267 14.013-13.996v-2.721 2.72c0 7.73 6.274 13.997 14.012 13.997h2.725-2.725c-7.738 0-14.012 6.267-14.012 13.997v2.721-2.721c0-7.73-6.275-13.997-14.013-13.997h-2.725z"/><path stroke="#21243F" stroke-linecap="square" d="M57.501 61.212H40.764M12.402 36.135L2.495 9.782C1.206 6.356 3.742 2.7 7.406 2.7h88.01a10.19 10.19 0 0 1 9.364 6.167l18.359 42.788c1.941 4.525-1.38 9.557-6.31 9.557H71.45m21.864 52.94h56.243"/></g></svg>